<?xml version="1.0" standalone="no"?>
<!DOCTYPE svg PUBLIC "-//W3C//DTD SVG 20010904//EN"
 "http://www.w3.org/TR/2001/REC-SVG-20010904/DTD/svg10.dtd">
<svg version="1.0" xmlns="http://www.w3.org/2000/svg"
 width="500.000000pt" height="500.000000pt" viewBox="0 0 500.000000 500.000000"
 preserveAspectRatio="xMidYMid meet">

<g transform="translate(0.000000,500.000000) scale(0.100000,-0.100000)"
fill="#000000" stroke="none">
<path d="M1861 3372 c-1 -15 108 -170 133 -192 29 -23 17 -1 -41 78 -32 43
-66 89 -75 102 -9 14 -17 19 -17 12z"/>
<path d="M1987 3373 c-16 -16 -5 -32 26 -36 l32 -4 -32 -1 c-37 -2 -39 -6 -18
-54 17 -43 64 -66 103 -52 24 8 72 65 72 84 0 5 -17 13 -37 19 l-38 11 38 -5
c31 -3 37 -1 37 14 0 13 -10 21 -31 25 -42 8 -144 8 -152 -1z m101 -90 c-10
-2 -28 -2 -40 0 -13 2 -5 4 17 4 22 1 32 -1 23 -4z"/>
<path d="M2205 3269 c-31 -61 -55 -112 -52 -115 2 -3 32 45 65 106 33 60 56
112 52 115 -4 2 -33 -45 -65 -106z"/>
<path d="M1634 3285 c-43 -74 -63 -155 -63 -252 0 -118 6 -153 27 -146 13 4
14 3 3 -5 -45 -32 126 -278 208 -299 14 -3 32 -12 39 -19 42 -43 266 -60 373
-28 58 18 164 68 173 83 4 5 -36 9 -94 10 -55 1 -106 4 -115 7 -9 4 -26 -6
-44 -25 -22 -24 -38 -31 -65 -31 -42 0 -86 36 -86 70 0 19 4 21 45 14 25 -3
66 -3 91 1 46 6 46 7 40 38 -15 74 -100 98 -151 43 -21 -22 -24 -31 -13 -37
25 -16 -10 -9 -44 9 -18 9 -35 18 -36 19 -2 1 13 31 33 68 21 36 35 68 32 71
-5 5 -60 -82 -70 -111 -2 -5 -14 -2 -25 9 l-21 18 24 36 c34 50 32 86 -5 124
-26 25 -35 29 -68 24 -20 -3 -41 -5 -45 -6 -5 0 -6 -15 -2 -32 7 -33 6 -33
-15 7 -12 22 -26 51 -31 63 l-9 24 90 -4 c49 -1 90 0 90 5 0 4 -41 7 -90 7
-89 0 -91 0 -101 27 -18 49 -31 125 -33 195 0 37 -4 68 -8 68 -4 0 -19 -20
-34 -45z m167 -481 c9 -11 7 -14 -8 -14 -37 0 -80 73 -67 113 5 16 11 11 35
-33 16 -29 34 -59 40 -66z m-101 102 c0 -2 -7 -7 -16 -10 -8 -3 -12 -2 -9 4 6
10 25 14 25 6z m140 -98 c6 -10 8 -18 5 -18 -8 0 -65 92 -65 104 0 6 11 -7 25
-29 13 -22 29 -48 35 -57z m313 -105 c-7 -2 -19 -2 -25 0 -7 3 -2 5 12 5 14 0
19 -2 13 -5z m-60 -10 c-13 -2 -33 -2 -45 0 -13 2 -3 4 22 4 25 0 35 -2 23 -4z
m77 -143 c0 -5 -2 -10 -4 -10 -3 0 -8 5 -11 10 -3 6 -1 10 4 10 6 0 11 -4 11
-10z"/>
<path d="M1790 3250 c-39 -55 -63 -120 -50 -135 7 -8 16 -13 20 -10 4 3 10 -2
14 -10 7 -19 65 -20 92 0 12 8 27 28 34 44 13 32 6 86 -10 76 -5 -3 -7 0 -4 8
6 16 -10 32 -48 46 -24 9 -30 7 -48 -19z m11 -73 c-14 -29 -27 -49 -29 -46 -5
11 42 99 53 99 1 0 -10 -24 -24 -53z"/>
<path d="M2298 3253 c-58 -36 -60 -112 -6 -158 24 -20 33 -23 39 -13 7 10 9
10 9 1 0 -15 19 -17 39 -4 11 7 9 17 -9 57 -11 27 -33 61 -47 76 -15 15 -24
30 -21 34 9 8 55 -56 79 -110 14 -32 24 -45 31 -38 11 11 -18 85 -55 139 -25
38 -24 38 -59 16z"/>
<path d="M2042 3038 c-27 -27 -6 -68 35 -68 26 0 47 32 38 60 -7 23 -53 28
-73 8z"/>
<path d="M2265 3030 c-18 -5 21 -8 100 -8 94 0 119 3 90 9 -49 10 -149 9 -190
-1z"/>
<path d="M3123 2993 c-20 -3 -33 -10 -33 -18 0 -27 44 -105 59 -106 36 -2 216
3 219 6 7 7 -20 74 -39 99 -19 24 -26 26 -97 24 -42 0 -92 -3 -109 -5z"/>
<path d="M2942 2961 c-40 -10 -75 -21 -78 -24 -11 -11 5 -52 35 -88 l30 -35
92 23 c51 13 94 24 95 26 1 1 -12 27 -30 57 -20 34 -40 56 -52 57 -10 1 -52
-6 -92 -16z"/>
<path d="M2269 2941 c-21 -21 -29 -39 -29 -63 0 -41 31 -84 54 -75 9 4 15 2
13 -5 -1 -7 5 -13 13 -15 17 -4 62 63 84 125 12 33 12 42 3 42 -7 0 -18 -15
-25 -33 -6 -18 -19 -42 -27 -52 -8 -11 -4 4 9 34 14 30 23 58 20 63 -8 13 -42
9 -47 -4 -4 -10 -6 -10 -6 0 -2 21 -31 13 -62 -17z"/>
<path d="M2755 2890 c-33 -16 -65 -30 -72 -30 -7 0 -17 -8 -22 -19 -8 -15 -4
-26 23 -57 l33 -39 92 30 c50 16 91 31 91 34 0 10 -72 111 -79 111 -4 0 -33
-13 -66 -30z"/>
<path d="M2158 2823 c39 -49 152 -160 152 -149 0 11 -163 186 -173 186 -5 0 5
-17 21 -37z"/>
<path d="M2563 2812 c-7 -4 -31 -36 -53 -71 -30 -47 -36 -61 -23 -58 10 3 52
13 93 22 115 27 116 28 83 75 -22 31 -35 40 -58 40 -16 0 -35 -4 -42 -8z"/>
</g>
</svg>
